<?xml version="1.0" encoding="UTF-8"?>
<svg version="1.1" xmlns="http://www.w3.org/2000/svg" width="1700" height="1700">
<path d="M0 0 C1.44311044 -0.00702506 2.88622058 -0.01411185 4.32933044 -0.02125549 C8.91487073 -0.04064486 13.50036035 -0.04568984 18.0859375 -0.046875 C18.86802959 -0.04731686 19.65012169 -0.04775871 20.45591354 -0.04821396 C43.84175092 -0.05513983 67.08944363 0.17313982 90.33984375 2.94989014 C92.55524925 3.21438477 94.77166404 3.46901947 96.98828125 3.72314453 C186.71724787 14.15206563 275.18109653 41.83601166 373.4609375 99.203125 C374.77481445 100.00314941 374.77481445 100.00314941 376.11523438 100.81933594 C411.63385663 122.53457954 445.05770594 148.21879931 475.57421875 176.53515625 C477.39108489 178.21434377 479.2202204 179.88044633 481.06640625 181.52734375 C488.3736426 188.07538672 495.32945545 194.96317852 502.2734375 201.890625 C502.77348297 202.38808228 503.27352844 202.88553955 503.78872681 203.39807129 C509.01792108 208.60592191 514.15782676 213.84952305 518.96069336 219.45776367 C521.18325523 222.04345851 523.51197492 224.52068019 525.8359375 227.015625 C530.05367837 231.58610405 534.0704639 236.2725137 537.96875 241.12109375 C539.83962834 243.43476618 541.72825629 245.72499079 543.640625 248.00390625 C552.36415644 258.42474287 560.54616197 269.15715703 568.4609375 280.203125 C569.34313965 281.43168213 569.34313965 281.43168213 570.24316406 282.68505859 C578.76208681 294.58875267 586.80821317 306.72607845 594.4609375 319.203125 C594.95303711 320.00186035 595.44513672 320.8005957 595.95214844 321.62353516 C603.37348195 333.70191238 610.33212357 345.99662187 617.01269531 358.49902344 C618.39836369 361.08628962 619.79962776 363.66456227 621.203125 366.2421875 C658.24318698 434.87189147 681.70659463 513.31478377 692.7109375 609.078125 C692.79420288 609.89867371 692.87746826 610.71922241 692.96325684 611.56463623 C695.09678347 632.87469498 695.66700598 654.03868496 695.6484375 675.453125 C695.64783325 676.74058624 695.647229 678.02804749 695.64660645 679.35452271 C695.62235802 698.38997764 695.3376021 717.24803815 693.4609375 736.203125 C693.33570154 737.53235182 693.21087924 738.86161766 693.08642578 740.19091797 C685.37104538 821.3755805 662.81997912 899.79556575 627.4609375 973.203125 C627.02185059 974.11980957 626.58276367 975.03649414 626.13037109 975.98095703 C613.06094093 1003.14477072 597.57590693 1029.39286276 580.4609375 1054.203125 C579.94063965 1054.96157715 579.4203418 1055.7200293 578.88427734 1056.50146484 C566.84138243 1074.02566584 554.01713682 1090.82558471 540.4609375 1107.203125 C539.73777344 1108.07710937 539.73777344 1108.07710937 539 1108.96875 C533.23911817 1115.90727065 527.30605169 1122.65032585 521.1640625 1129.25390625 C519.1522221 1131.42416794 517.21218129 1133.64609183 515.28198242 1135.88916016 C511.55558267 1140.15303485 507.63005248 1144.17871301 503.62109375 1148.17578125 C502.89530624 1148.90252548 502.16951874 1149.62926971 501.42173767 1150.3780365 C499.89770194 1151.90274796 498.37242181 1153.4262165 496.84594727 1154.94848633 C494.52961287 1157.25946391 492.21866672 1159.57573271 489.90820312 1161.89257812 C488.41698716 1163.3831332 486.92546097 1164.873378 485.43359375 1166.36328125 C484.75313492 1167.04576431 484.07267609 1167.72824738 483.37159729 1168.43141174 C479.43369516 1172.35043515 475.39229077 1176.09313217 471.18280029 1179.71937561 C468.96556757 1181.62999109 466.80855785 1183.603374 464.6484375 1185.578125 C459.39917867 1190.30884002 453.96534754 1194.77396194 448.4609375 1199.203125 C447.33958448 1200.11686942 446.21850239 1201.03094639 445.09765625 1201.9453125 C435.13279739 1210.03776309 424.86442526 1217.68541797 414.4609375 1225.203125 C413.35782227 1226.00049072 413.35782227 1226.00049072 412.23242188 1226.81396484 C387.92134796 1244.32254992 362.31092818 1259.81978726 335.87744141 1273.90673828 C333.73117026 1275.05815269 331.5996134 1276.23139611 329.47265625 1277.41796875 C262.01403983 1314.69886886 184.45171918 1336.47571246 -163.51831055 1327.48266602 C-219.46927707 1311.36133217 -274.1229157 1289.10565782 -323.93212891 1258.78222656 C-326.53094839 1257.20803997 -329.14656003 1255.6663629 -331.76953125 1254.1328125 C-369.09576639 1232.22640926 -404.17479873 1205.20344291 -435.85766602 1175.7409668 C-437.09143823 1174.6125319 -438.33874743 1173.49885108 -439.59350586 1172.39379883 C-446.91792619 1165.92117865 -453.82761828 1159.06698902 -460.72631836 1152.14624023 C-462.72983236 1150.13734636 -464.73866402 1148.13388111 -466.74804688 1146.13085938 C-472.89119341 1139.99090179 -478.93954966 1133.85013381 -484.5390625 1127.203125 C-485.99351767 1125.59544127 -487.45127145 1123.99072785 -488.9140625 1122.390625 C-492.75834495 1118.12567192 -496.43433155 1113.7545165 -500.04296875 1109.2890625 C-501.85104406 1107.05372683 -503.67019013 1104.83124295 -505.50390625 1102.6171875 C-513.91301857 1092.42820462 -521.8158403 1081.91937563 -529.5390625 1071.203125 C-530.06918945 1070.46916504 -530.59931641 1069.73520508 -531.14550781 1068.97900391 C-548.30112089 1045.1601292 -563.66247633 1020.06593976 -577.5390625 994.203125 C-578.02020508 993.31318848 -578.50134766 992.42325195 -578.99707031 991.50634766 C-615.86175297 923.06161707 -639.54246449 847.65276873 -653.8515625 741.078125 C-653.97366592 739.79592575 -653.97366592 739.79592575 -654.09823608 738.48782349 C-656.033155 717.83046039 -656.7474698 697.26050267 -656.7265625 676.515625 C-656.72595825 675.3992868 -656.725354 674.28294861 -656.72473145 673.13278198 C-656.6973655 654.41063795 -656.21898438 635.85788336 -654.5390625 617.203125 C-654.478255 616.51675964 -654.41744751 615.83039429 -654.35479736 615.12322998 C-647.97134202 543.60272598 -630.35525337 473.00726235 -601.5390625 407.203125 C-601.09240234 406.18283203 -600.64574219 405.16253906 -600.18554688 404.11132812 C-588.8099193 378.34342507 -576.1604959 353.28074233 -561.5390625 329.203125 C-560.73154541 327.86096924 -560.73154541 327.86096924 -559.90771484 326.49169922 C-544.48952667 300.89778795 -527.25460819 276.48961145 -508.5390625 253.203125 C-507.79398438 252.275 -507.04890625 251.346875 -506.28125 250.390625 C-496.89476869 238.81732905 -487.12852989 227.62830783 -476.9609375 216.73828125 C-475.6299476 215.30125094 -474.31812816 213.84653129 -473.0078125 212.390625 C-467.13839091 205.86904546 -461.04521173 199.60395554 -454.8515625 193.390625 C-454.05548584 192.58995605 -453.25940918 191.78928711 -452.43920898 190.96435547 C-448.21366818 186.74979237 -443.90987365 182.69723912 -439.38598633 178.80493164 C-436.59700728 176.38609602 -433.91879884 173.8533713 -431.2265625 171.328125 C-426.40804539 166.84570226 -421.46723317 162.5887677 -416.33203125 158.46875 C-413.8363142 156.44425226 -411.39200487 154.37046247 -408.95825195 152.2722168 C-401.10548014 145.51962058 -392.88950649 139.32370826 -384.5390625 133.203125 C-383.83652344 132.68492187 -383.13398438 132.16671875 -382.41015625 131.6328125 C-310.73171479 78.81711879 -228.94773908 39.79309406 -40.33203125 1.96484375 C-39.67908585 1.90159409 -39.02614044 1.83834442 -38.35340881 1.7731781 C-25.57515378 0.59698466 -12.83175338 0.03896999 0 0 Z " fill="#3B342D" transform="translate(832.5390625,164.796875)"/>
<path d="M0 0 C0 123.09 0 246.18 0 373 C6.93 373.66 13.86 374.32 21 375 C34.24472835 376.36698678 34.24472835 376.36698678 39.60351562 376.94335938 C58.37977894 378.87874324 77.19758327 379.26795073 96.0625 379.3125 C97.21454926 379.31578308 98.36659851 379.31906616 99.55355835 379.32244873 C129.6412662 379.34978502 159.66825649 377.18677554 189.51049805 373.36279297 C193 373 193 373 199 373 C199 249.91 199 126.82 199 0 C237.29707926 1.82367044 273.25471108 9.29687981 311 17 C311 160.88 311 304.76 311 453 C266.65051673 460.39158055 223.1712441 466.57194053 178.5625 470.203125 C177.76081894 470.26954697 176.95913788 470.33596893 176.13316345 470.40440369 C160.41340499 471.65482897 144.76502813 472.16882581 129 472.203125 C127.00881936 472.21010045 125.01763894 472.21714145 123.02645874 472.22424316 C116.68430312 472.24356202 110.34218183 472.24841973 104 472.25 C102.38300579 472.25088371 102.38300579 472.25088371 100.73334503 472.25178528 C68.39430647 472.26427613 36.22388301 472.01211303 4 469 C2.6553064 468.87694489 2.6553064 468.87694489 1.28344727 468.75140381 C-28.44744655 466.02276961 -28.44744655 466.02276961 -39.8515625 464.00390625 C-48.18362943 462.64346076 -56.60398519 461.88379103 -65 461 C-80.51 458.36 -96.02 455.72 -112 453 C-112 309.12 -112 165.24 -112 17 C-68.18511124 7.77581289 -68.18511124 7.77581289 -53.625 5.625 C-52.10272525 5.39022457 -50.58059094 5.15453689 -49.05859375 4.91796875 C-36.52083228 2.98741437 -23.923973 1.07336178 -11.25 0.375 C-9.95578125 0.30023437 -8.6615625 0.22546875 -7.328125 0.1484375 C-4.88734205 0.03957629 -2.4432094 0 0 0 Z " fill="#FEFEFE" transform="translate(752,703)"/>
<path d="M0 0 C28.38 0 56.76 0 86 0 C86 19.8 86 39.6 86 60 C92.6 60 99.2 60 106 60 C109.97700304 60.3256603 113.81640298 60.6923353 117.75 61.25 C119.84631983 61.52500146 121.94267602 61.79972581 124.0390625 62.07421875 C125.14282227 62.22294434 126.24658203 62.37166992 127.38378906 62.52490234 C131.40621384 63.05336836 135.43246605 63.53987891 139.4609375 64.01953125 C141.63535328 64.28096886 143.80969446 64.54301789 145.98400879 64.80529785 C147.3974934 64.97510298 148.8111471 65.14350708 150.22497559 65.3104248 C152.2157455 65.54652147 154.20555026 65.7907125 156.1953125 66.03515625 C157.34016113 66.1731665 158.48500977 66.31117676 159.66455078 66.45336914 C163 67 163 67 170 69 C170 48.54 170 28.08 170 7 C176.17001114 7 181.71345398 7.0457252 187.75390625 7.69921875 C188.44921448 7.77437714 189.14452271 7.84953552 189.86090088 7.92697144 C192.09573664 8.17259022 194.32915815 8.4286681 196.5625 8.6875 C197.33056976 8.77514618 198.09863953 8.86279236 198.88998413 8.95309448 C211.89423082 10.45235842 224.66833722 12.59044033 237.45166016 15.43603516 C239.8322529 15.96287643 242.21638162 16.4625626 244.60546875 16.94921875 C253.85006313 18.85006313 253.85006313 18.85006313 255 20 C255.09652596 21.87294784 255.12187266 23.74958244 255.12025452 25.62501526 C255.12231651 27.45715576 255.12231651 27.45715576 255.12442017 29.3263092 C255.12088056 30.69223047 255.11724574 32.05815148 255.11352539 33.42407227 C255.11324352 34.85277301 255.11340124 36.2814739 255.1139679 37.71017456 C255.11425589 41.60049972 255.10835887 45.49079431 255.10139394 49.38111234 C255.0951607 53.44238205 255.09455663 57.50365239 255.09336853 61.56492615 C255.09025512 69.26078933 255.08204161 76.95663838 255.07201904 84.65249532 C255.06085819 93.41172114 255.05534753 102.17094761 255.05032361 110.93017876 C255.03985901 128.95346053 255.02225939 146.97672913 255 165 C252.26476398 164.52257891 249.5297794 164.0437893 246.79492188 163.56420898 C246.02363953 163.42973106 245.25235718 163.29525314 244.45770264 163.15670013 C239.4271805 162.27315783 234.46687988 161.2580403 229.5 160.0625 C219.18073832 157.68042444 208.74550921 156.09912665 198.28076172 154.50439453 C195.02995308 154.00460508 191.78241846 153.48713755 188.53515625 152.96484375 C167.24415971 149.56439963 145.91774295 147.17351563 124.4375 145.375 C123.69276428 145.3124704 122.94802856 145.2499408 122.1807251 145.18551636 C119.99441578 145.00348007 117.80783817 144.82516481 115.62109375 144.6484375 C114.3673999 144.54708496 113.11370605 144.44573242 111.82202148 144.34130859 C110.21488507 144.22469163 108.6075024 144.11145859 107 144 C105.8000238 143.91519882 104.60004761 143.83039764 103.3637085 143.74302673 C92.39065612 143.00830702 81.45595144 142.83665273 70.4609375 142.83203125 C68.60568214 142.82879953 66.75042701 142.82543422 64.89517212 142.82194519 C61.01751113 142.81599984 57.13987224 142.81409998 53.26220703 142.81469727 C49.37674212 142.81477766 45.49139728 142.80796702 41.60595703 142.79418945 C8.33193294 142.67820465 -24.90323141 143.27160715 -58 147 C-59.57412051 147.16759195 -61.14834088 147.33424852 -62.72265625 147.5 C-79.03738099 149.23811737 -95.24240753 151.57457702 -111.4375 154.1875 C-112.36722626 154.33696075 -113.29695251 154.48642151 -114.25485229 154.64041138 C-130.8221374 157.32035342 -147.18372675 160.62321089 -163.51782227 164.46850586 C-166 165 -166 165 -168 165 C-168 116.82 -168 68.64 -168 19 C-146.60235148 14.83934612 -125.55936425 10.78056707 -104 8 C-102.29810366 7.77268443 -100.59627426 7.54486686 -98.89453125 7.31640625 C-93.55785802 6.61448516 -88.39612017 6 -83 6 C-83 26.79 -83 47.58 -83 69 C-73.76 67.35 -64.52 65.7 -55 64 C-47.58023673 63.09623936 -40.19802858 62.20860069 -32.7644043 61.48657227 C-29.61187579 61.1801494 -26.46125119 60.85780652 -23.31054688 60.53320312 C-21.27352695 60.32723837 -19.23642066 60.12212557 -17.19921875 59.91796875 C-16.27324387 59.82428513 -15.34726898 59.7306015 -14.39323425 59.63407898 C-13.52314224 59.55011368 -12.65305023 59.46614838 -11.7565918 59.37963867 C-10.62751656 59.26902351 -10.62751656 59.26902351 -9.47563171 59.15617371 C-6.32292593 58.9572872 -3.15897287 59 0 59 C0 39.53 0 20.06 0 0 Z " fill="#FDFDFD" transform="translate(808,502)"/>
<path d="M0 0 C0 20.79 0 41.58 0 63 C-0.66 63 -1.32 63 -2 63 C-2 42.87 -2 22.74 -2 2 C-4.97 2 -7.94 2 -11 2 C-11 1.67 -11 1.34 -11 1 C-7.18939869 0.29105092 -3.91978817 0 0 0 Z " fill="#BEBAB8" transform="translate(725,508)"/>
<path d="M0 0 C-1.31376917 2.90543872 -2.72056492 4.96661059 -4.98095703 7.20800781 C-5.58142853 7.80832825 -6.18190002 8.40864868 -6.80056763 9.02716064 C-7.44645844 9.66272888 -8.09234924 10.29829712 -8.7578125 10.953125 C-9.42086395 11.61334656 -10.08391541 12.27356812 -10.76705933 12.95379639 C-12.88171832 15.05727824 -15.00323212 17.15369142 -17.125 19.25 C-18.56165557 20.67662261 -19.99785898 22.10370072 -21.43359375 23.53125 C-24.95050804 27.02613661 -28.47358547 30.51470062 -32 34 C-32.66 33.67 -33.32 33.34 -34 33 C-26.2354544 24.53639563 -18.33937745 16.21702243 -10.25 8.0625 C-9.46383301 7.26344238 -8.67766602 6.46438477 -7.86767578 5.64111328 C-7.13274902 4.90489746 -6.39782227 4.16868164 -5.640625 3.41015625 C-4.98610352 2.75152588 -4.33158203 2.09289551 -3.65722656 1.41430664 C-2 0 -2 0 0 0 Z " fill="#27221D" transform="translate(389,349)"/>
</svg>
